<svg xmlns="http://www.w3.org/2000/svg" width="640" height="420" viewBox="0 0 640 420">
  <title>Wireframe - Featured spotlight card</title>
  <rect width="640" height="420" fill="#fafafa" stroke="#e5e5e5"/>
  <text x="20" y="28" font-family="system-ui,sans-serif" font-size="11" fill="#737373">WIREFRAME - Issue #7 - FeaturedStorySpotlight</text>
  <rect x="20" y="44" width="600" height="356" rx="12" fill="#fff" stroke="#d4d4d4"/>
  <rect x="20" y="44" width="600" height="5" fill="url(#gold)"/>
  <defs>
    <linearGradient id="gold" x1="0" y1="0" x2="1" y2="0">
      <stop offset="0%" stop-color="#fbbf24"/>
      <stop offset="50%" stop-color="#60a5fa"/>
      <stop offset="100%" stop-color="#a78bfa"/>
    </linearGradient>
  </defs>
  <rect x="36" y="64" width="200" height="26" rx="13" fill="#fffbeb" stroke="#fcd34d"/>
  <text x="136" y="81" font-family="system-ui,sans-serif" font-size="10" font-weight="600" fill="#b45309" text-anchor="middle">CREATOR SPOTLIGHT</text>
  <circle cx="88" cy="160" r="44" fill="#e5e5e5" stroke="#fbbf24" stroke-width="3"/>
  <text x="88" y="166" font-family="system-ui,sans-serif" font-size="11" fill="#737373" text-anchor="middle">avatar</text>
  <text x="152" y="132" font-family="system-ui,sans-serif" font-size="18" font-weight="600" fill="#171717">Story title</text>
  <text x="152" y="158" font-family="system-ui,sans-serif" font-size="12" fill="#737373">By Creator</text>
  <rect x="152" y="172" width="440" height="56" rx="4" fill="#fafafa" stroke="#e5e5e5"/>
  <line x1="152" y1="172" x2="152" y2="228" stroke="#fbbf24" stroke-width="2"/>
  <text x="164" y="196" font-family="system-ui,sans-serif" font-size="11" fill="#737373">Summary - border-left</text>
  <rect x="36" y="252" width="568" height="128" rx="8" fill="#f5f5f5" stroke="#d4d4d4"/>
  <text x="48" y="276" font-family="system-ui,sans-serif" font-size="10" fill="#737373">Timeline strip - thumbs + meta</text>
  <rect x="48" y="288" width="56" height="56" rx="6" fill="#d4d4d4"/>
  <rect x="112" y="288" width="56" height="56" rx="6" fill="#c4c4c4"/>
  <rect x="176" y="288" width="56" height="56" rx="6" fill="#b4b4b4"/>
  <text x="48" y="372" font-family="system-ui,sans-serif" font-size="10" fill="#737373">12 events - views - likes - shares</text>
  <text x="20" y="408" font-family="system-ui,sans-serif" font-size="10" fill="#a3a3a3">See docs/mockups/feature-page-timeline-summary.html</text>
</svg>
