<svg xmlns="http://www.w3.org/2000/svg" width="720" height="980" viewBox="0 0 720 980">
  <title>Wireframe - Discover How it works tab</title>
  <rect width="720" height="980" fill="#fafafa" stroke="#e5e5e5"/>
  <text x="24" y="36" font-family="system-ui,sans-serif" font-size="11" fill="#737373">WIREFRAME - Issue #26 / #16</text>
  <rect x="24" y="52" width="672" height="40" rx="6" fill="#fff" stroke="#d4d4d4"/>
  <text x="40" y="77" font-family="system-ui,sans-serif" font-size="13" font-weight="600" fill="#171717">Header</text>
  <rect x="24" y="104" width="672" height="44" rx="8" fill="#f5f5f5" stroke="#d4d4d4"/>
  <text x="40" y="132" font-family="system-ui,sans-serif" font-size="12" fill="#737373">Search</text>
  <rect x="24" y="164" width="672" height="48" rx="6" fill="#fff" stroke="#d4d4d4"/>
  <rect x="40" y="176" width="160" height="28" rx="6" fill="#f5f5f5" stroke="#d4d4d4"/>
  <text x="120" y="194" font-family="system-ui,sans-serif" font-size="12" fill="#525252" text-anchor="middle">Explore</text>
  <rect x="216" y="176" width="200" height="28" rx="6" fill="#171717"/>
  <text x="316" y="194" font-family="system-ui,sans-serif" font-size="12" fill="#fff" text-anchor="middle">How it works</text>
  <rect x="24" y="228" width="672" height="120" rx="6" fill="#fff" stroke="#d4d4d4" stroke-dasharray="4 3"/>
  <text x="40" y="252" font-family="system-ui,sans-serif" font-size="11" fill="#737373">FULL HERO - headline, body, 3 bullets, wedge, guide + feedback</text>
  <rect x="40" y="268" width="640" height="64" rx="4" fill="#f5f5f5" stroke="#e5e5e5"/>
  <text x="24" y="376" font-family="system-ui,sans-serif" font-size="14" font-weight="600" fill="#171717">How it works (steps)</text>
  <rect x="24" y="388" width="208" height="88" rx="8" fill="#fff" stroke="#d4d4d4"/>
  <text x="128" y="432" font-family="system-ui,sans-serif" font-size="11" fill="#737373" text-anchor="middle">1 - Editor</text>
  <rect x="248" y="388" width="208" height="88" rx="8" fill="#fff" stroke="#d4d4d4"/>
  <text x="352" y="432" font-family="system-ui,sans-serif" font-size="11" fill="#737373" text-anchor="middle">2 - Visuals</text>
  <rect x="472" y="388" width="208" height="88" rx="8" fill="#fff" stroke="#d4d4d4"/>
  <text x="576" y="432" font-family="system-ui,sans-serif" font-size="11" fill="#737373" text-anchor="middle">3 - Publish</text>
  <rect x="24" y="496" width="672" height="160" rx="10" fill="#fff" stroke="#d4d4d4"/>
  <text x="40" y="524" font-family="system-ui,sans-serif" font-size="11" font-weight="600" fill="#737373">STRONG STORYWALLS</text>
  <text x="40" y="552" font-family="system-ui,sans-serif" font-size="11" fill="#a3a3a3">Pillar grid - link to full guide</text>
  <rect x="24" y="676" width="672" height="96" rx="10" fill="#f5f5f5" stroke="#d4d4d4" stroke-dasharray="5 4"/>
  <text x="40" y="708" font-family="system-ui,sans-serif" font-size="11" font-weight="600" fill="#737373">FOUNDER DEMO (optional)</text>
  <text x="40" y="732" font-family="system-ui,sans-serif" font-size="11" fill="#a3a3a3">NEXT_PUBLIC_FOUNDER_DEMO_URL</text>
  <rect x="520" y="700" width="160" height="36" rx="8" fill="#171717"/>
  <text x="600" y="722" font-family="system-ui,sans-serif" font-size="11" fill="#fff" text-anchor="middle">Watch demo</text>
  <text x="24" y="800" font-family="system-ui,sans-serif" font-size="10" fill="#a3a3a3">Issue #16: 3 flagship stories - DB ops (FLAGSHIP_EXAMPLES.md)</text>
</svg>
